<svg width="80" height="80" viewBox="0 0 80 80" fill="none" xmlns="http://www.w3.org/2000/svg">
<path fill-rule="evenodd" clip-rule="evenodd" d="M40 80C62.0914 80 80 62.0914 80 40C80 17.9086 62.0914 0 40 0C17.9086 0 0 17.9086 0 40C0 62.0914 17.9086 80 40 80ZM71 40C71 57.1208 57.1208 71 40 71C22.8792 71 9 57.1208 9 40C9 22.8792 22.8792 9 40 9C57.1208 9 71 22.8792 71 40ZM73 40C73 58.2254 58.2254 73 40 73C21.7746 73 7 58.2254 7 40C7 21.7746 21.7746 7 40 7C58.2254 7 73 21.7746 73 40Z" fill="white"/>
</svg>
