<svg width="28" height="28" viewBox="0 0 28 28" fill="none" xmlns="http://www.w3.org/2000/svg">
<path d="M26.8337 22.1667C26.8337 22.7855 26.5878 23.379 26.1502 23.8166C25.7127 24.2542 25.1192 24.5 24.5003 24.5H3.50033C2.88149 24.5 2.28799 24.2542 1.85041 23.8166C1.41282 23.379 1.16699 22.7855 1.16699 22.1667V9.33333C1.16699 8.71449 1.41282 8.121 1.85041 7.68342C2.28799 7.24583 2.88149 7 3.50033 7H8.16699L10.5003 3.5H17.5003L19.8337 7H24.5003C25.1192 7 25.7127 7.24583 26.1502 7.68342C26.5878 8.121 26.8337 8.71449 26.8337 9.33333V22.1667Z" stroke="white" stroke-width="2" stroke-linecap="round" stroke-linejoin="round"/>
<path d="M13.9997 19.8333C16.577 19.8333 18.6663 17.744 18.6663 15.1667C18.6663 12.5893 16.577 10.5 13.9997 10.5C11.4223 10.5 9.33301 12.5893 9.33301 15.1667C9.33301 17.744 11.4223 19.8333 13.9997 19.8333Z" stroke="white" stroke-width="2" stroke-linecap="round" stroke-linejoin="round"/>
</svg>
